<?xml version="1.0" standalone="no"?>
<!DOCTYPE svg PUBLIC "-//W3C//DTD SVG 20010904//EN"
 "http://www.w3.org/TR/2001/REC-SVG-20010904/DTD/svg10.dtd">
<svg version="1.0" xmlns="http://www.w3.org/2000/svg"
 width="512.000000pt" height="512.000000pt" viewBox="0 0 512.000000 512.000000"
 preserveAspectRatio="xMidYMid meet">
<metadata>
Created by potrace 1.11, written by Peter Selinger 2001-2013
</metadata>
<g transform="translate(0.000000,512.000000) scale(0.100000,-0.100000)"
fill="#000000" stroke="none">
<path d="M598 4311 c-34 -22 -53 -44 -74 -87 -25 -51 -28 -67 -27 -153 1 -54
32 -332 72 -641 39 -300 76 -593 81 -652 11 -127 14 -85 -86 -1108 -83 -847
-87 -939 -46 -1016 27 -53 92 -109 148 -128 69 -23 150 -32 884 -98 l685 -62
998 -3 c879 -3 1006 -2 1060 12 87 22 135 59 172 130 28 55 30 67 34 194 1 74
-9 502 -25 951 -22 657 -25 836 -16 925 6 61 60 380 121 710 61 330 115 634
120 676 14 129 -7 209 -72 265 -33 30 -94 61 -102 53 -17 -17 -187 -1509 -186
-1629 1 -52 15 -477 31 -945 17 -467 30 -882 30 -920 l0 -70 -992 -107 -993
-106 -855 158 c-470 88 -901 167 -957 176 -77 13 -103 21 -103 32 0 8 40 281
89 606 50 325 113 749 142 941 28 193 56 351 60 353 5 2 4 11 -1 20 -5 9 -29
283 -55 607 -56 718 -75 928 -84 938 -4 4 -28 -6 -53 -22z"/>
<path d="M1374 4310 c-12 -5 -37 -27 -55 -49 -26 -33 -39 -41 -65 -41 -101 0
-216 -87 -229 -172 l-7 -45 -105 -6 c-111 -6 -133 -15 -133 -53 0 -45 28 -52
147 -36 100 13 108 13 118 -3 61 -102 129 -145 233 -145 114 0 193 39 247 122
24 37 35 45 55 42 14 -2 64 -6 111 -9 l87 -7 5 -40 c13 -95 90 -185 180 -209
133 -36 294 39 344 159 l14 34 85 -4 c55 -3 89 -9 94 -17 5 -10 9 -10 12 -1 3
10 31 15 199 34 34 3 36 2 47 -38 17 -64 66 -121 128 -152 48 -23 63 -26 127
-22 89 6 159 39 211 100 34 39 66 117 66 160 0 21 2 22 95 37 82 14 105 25 88
42 -8 8 -38 8 -106 2 l-94 -8 -21 36 c-25 44 -108 89 -177 97 -25 2 -45 8 -45
12 0 13 36 40 53 40 21 0 23 33 3 49 -11 10 -21 6 -49 -18 -19 -17 -40 -44
-47 -61 -8 -20 -20 -30 -34 -30 -59 -1 -177 -86 -203 -147 -12 -29 -18 -33
-52 -33 -21 0 -72 -3 -114 -6 l-76 -7 -4 64 -3 64 -2 -64 -2 -64 -61 7 c-34 3
-74 6 -88 6 -21 0 -29 8 -45 45 -23 57 -75 101 -146 122 -30 9 -57 18 -59 20
-11 8 35 43 56 43 24 0 27 7 17 34 -11 28 -47 17 -88 -28 -35 -37 -51 -45
-101 -56 -73 -14 -135 -49 -172 -95 -31 -39 -53 -42 -181 -29 l-60 7 -7 43
c-12 80 -96 158 -192 179 -28 6 -31 9 -23 25 5 10 24 21 40 25 24 5 30 12 28
28 -4 24 -15 29 -44 17z"/>
<path d="M2493 4150 c0 -41 2 -58 4 -37 2 20 2 54 0 75 -2 20 -4 3 -4 -38z"/>
<path d="M2514 3680 c0 -63 1 -89 3 -57 2 31 2 83 0 115 -2 31 -3 5 -3 -58z"/>
<path d="M1225 3566 c-19 -13 -18 -15 13 -44 40 -37 43 -78 8 -92 -31 -11 -66
-57 -65 -84 0 -20 0 -20 9 2 10 23 25 29 35 12 11 -17 -15 -52 -35 -47 -16 4
-20 -3 -27 -47 l-8 -51 -155 -5 c-139 -4 -155 -7 -158 -23 -8 -40 14 -47 150
-47 120 0 130 -1 123 -17 -5 -15 -4 -16 6 -5 33 32 119 -2 119 -48 0 -36 -41
-69 -95 -76 -27 -3 -51 -7 -53 -8 -9 -10 14 -58 41 -86 59 -61 160 -91 235
-71 113 31 186 176 137 271 -15 30 -15 30 14 30 41 0 285 -21 289 -25 2 -2 -4
-17 -13 -35 -15 -29 -15 -31 0 -23 26 15 74 3 94 -23 39 -50 -15 -114 -96
-114 -28 0 -33 -4 -33 -24 0 -55 84 -120 180 -139 l60 -13 -67 -39 c-37 -22
-78 -42 -92 -45 -13 -3 141 -25 343 -49 202 -23 370 -41 373 -37 3 3 -1 169
-8 368 -12 305 -15 344 -19 240 l-5 -122 -183 -110 c-101 -61 -185 -110 -188
-110 -2 0 3 11 11 24 27 41 30 125 6 170 -11 22 -19 41 -18 43 2 2 51 -4 108
-12 164 -23 245 -18 206 13 -6 5 -37 15 -67 21 -48 10 -270 41 -292 41 -13 0
-35 52 -43 100 -9 54 -39 107 -65 115 -13 4 -20 15 -20 33 -1 36 -35 111 -55
119 -9 3 -24 -1 -32 -10 -15 -14 -13 -19 15 -52 42 -47 41 -71 -2 -89 -41 -17
-53 -36 -69 -118 -13 -61 -14 -63 -43 -62 -16 1 -102 7 -191 15 l-161 12 -20
41 c-11 23 -23 61 -26 85 -7 49 -37 97 -65 106 -13 4 -20 18 -24 51 -4 44 -31
94 -53 101 -5 2 -18 -3 -29 -11z m663 -303 c-4 -32 -38 -46 -38 -16 0 20 18
43 33 43 4 0 7 -12 5 -27z"/>
<path d="M2524 3425 c0 -66 1 -92 3 -57 2 34 2 88 0 120 -2 31 -3 3 -3 -63z"/>
<path d="M843 2763 c9 -2 25 -2 35 0 9 3 1 5 -18 5 -19 0 -27 -2 -17 -5z"/>
<path d="M923 2753 c9 -2 25 -2 35 0 9 3 1 5 -18 5 -19 0 -27 -2 -17 -5z"/>
<path d="M1008 2743 c12 -2 30 -2 40 0 9 3 -1 5 -23 4 -22 0 -30 -2 -17 -4z"/>
<path d="M1088 2733 c12 -2 30 -2 40 0 9 3 -1 5 -23 4 -22 0 -30 -2 -17 -4z"/>
<path d="M1173 2723 c9 -2 25 -2 35 0 9 3 1 5 -18 5 -19 0 -27 -2 -17 -5z"/>
<path d="M1258 2713 c12 -2 30 -2 40 0 9 3 -1 5 -23 4 -22 0 -30 -2 -17 -4z"/>
<path d="M1338 2703 c12 -2 30 -2 40 0 9 3 -1 5 -23 4 -22 0 -30 -2 -17 -4z"/>
<path d="M1428 2693 c12 -2 30 -2 40 0 9 3 -1 5 -23 4 -22 0 -30 -2 -17 -4z"/>
<path d="M4223 2693 c15 -2 37 -2 50 0 12 2 0 4 -28 4 -27 0 -38 -2 -22 -4z"/>
<path d="M1508 2683 c12 -2 30 -2 40 0 9 3 -1 5 -23 4 -22 0 -30 -2 -17 -4z"/>
<path d="M4093 2683 c15 -2 39 -2 55 0 15 2 2 4 -28 4 -30 0 -43 -2 -27 -4z"/>
<path d="M1588 2673 c12 -2 30 -2 40 0 9 3 -1 5 -23 4 -22 0 -30 -2 -17 -4z"/>
<path d="M3973 2673 c15 -2 37 -2 50 0 12 2 0 4 -28 4 -27 0 -38 -2 -22 -4z"/>
<path d="M1678 2663 c12 -2 30 -2 40 0 9 3 -1 5 -23 4 -22 0 -30 -2 -17 -4z"/>
<path d="M3843 2663 c15 -2 39 -2 55 0 15 2 2 4 -28 4 -30 0 -43 -2 -27 -4z"/>
<path d="M1758 2653 c12 -2 30 -2 40 0 9 3 -1 5 -23 4 -22 0 -30 -2 -17 -4z"/>
<path d="M3723 2653 c15 -2 37 -2 50 0 12 2 0 4 -28 4 -27 0 -38 -2 -22 -4z"/>
<path d="M3593 2643 c15 -2 39 -2 55 0 15 2 2 4 -28 4 -30 0 -43 -2 -27 -4z"/>
<path d="M3473 2633 c15 -2 37 -2 50 0 12 2 0 4 -28 4 -27 0 -38 -2 -22 -4z"/>
<path d="M3343 2623 c15 -2 39 -2 55 0 15 2 2 4 -28 4 -30 0 -43 -2 -27 -4z"/>
<path d="M3213 2613 c15 -2 39 -2 55 0 15 2 2 4 -28 4 -30 0 -43 -2 -27 -4z"/>
<path d="M3093 2603 c15 -2 39 -2 55 0 15 2 2 4 -28 4 -30 0 -43 -2 -27 -4z"/>
<path d="M2963 2593 c15 -2 39 -2 55 0 15 2 2 4 -28 4 -30 0 -43 -2 -27 -4z"/>
<path d="M2843 2583 c15 -2 39 -2 55 0 15 2 2 4 -28 4 -30 0 -43 -2 -27 -4z"/>
<path d="M2713 2573 c15 -2 39 -2 55 0 15 2 2 4 -28 4 -30 0 -43 -2 -27 -4z"/>
<path d="M2593 2563 c15 -2 39 -2 55 0 15 2 2 4 -28 4 -30 0 -43 -2 -27 -4z"/>
<path d="M2553 2490 c0 -30 2 -43 4 -27 2 15 2 39 0 55 -2 15 -4 2 -4 -28z"/>
<path d="M1169 2438 c-23 -18 -58 -54 -77 -80 l-34 -48 56 0 c98 0 151 17 206
67 43 39 54 44 80 38 l31 -7 -38 -27 c-64 -46 -134 -132 -170 -207 -32 -67
-36 -72 -73 -78 -74 -12 -130 -87 -114 -152 11 -49 51 -92 94 -104 34 -9 47
-8 83 8 48 21 65 39 77 79 l8 28 1 -33 c1 -46 25 -86 64 -111 109 -67 241 55
182 169 -17 33 -65 70 -90 70 -15 0 -17 11 -13 103 3 89 7 108 31 149 15 25
39 55 53 65 l26 19 -25 30 c-24 27 -30 29 -90 27 -40 -2 -79 3 -101 12 -61 26
-118 20 -167 -17z m268 -130 c-30 -57 -32 -69 -32 -160 0 -72 -3 -98 -12 -98
-7 0 -31 -18 -52 -39 -40 -40 -51 -42 -51 -8 0 10 -16 35 -35 54 l-34 34 19
52 c11 29 37 74 57 101 37 47 135 125 160 126 7 0 -2 -26 -20 -62z"/>
<path d="M2543 2340 c0 -30 2 -43 4 -27 2 15 2 39 0 55 -2 15 -4 2 -4 -28z"/>
<path d="M1985 2354 c-16 -8 -38 -23 -49 -32 -24 -21 -76 -92 -76 -104 0 -12
103 -10 154 3 24 6 67 30 97 55 30 24 60 42 67 39 8 -3 20 -5 28 -5 8 0 -9
-19 -38 -43 -67 -54 -142 -153 -165 -216 -16 -45 -20 -50 -56 -55 -74 -12
-117 -60 -117 -133 0 -71 55 -126 126 -126 50 0 87 21 114 66 19 31 20 31 20
7 0 -55 69 -120 128 -120 74 0 132 60 132 138 0 36 -6 48 -40 82 -22 22 -47
40 -55 40 -21 0 -28 40 -23 123 6 83 33 148 81 189 l32 27 -28 28 c-25 26 -33
28 -91 26 -39 -2 -78 3 -100 12 -46 19 -103 19 -141 -1z m242 -151 c-29 -61
-32 -77 -32 -160 l1 -91 -33 -16 c-18 -9 -41 -29 -51 -46 l-19 -30 -12 39 c-6
22 -24 50 -40 64 l-29 24 22 55 c34 82 86 146 171 206 51 36 56 26 22 -45z"/>
<path d="M2966 2348 c-11 -6 -42 -8 -80 -4 -83 8 -126 -6 -171 -55 -30 -34
-75 -115 -75 -136 0 -10 78 7 136 28 45 17 64 32 97 75 38 49 79 76 93 61 3
-3 -13 -29 -37 -59 -54 -68 -94 -152 -110 -233 -9 -47 -17 -65 -28 -65 -27 0
-79 -38 -96 -69 -31 -62 -5 -148 55 -178 59 -30 148 -1 177 57 30 60 3 144
-57 175 -16 8 -30 20 -30 25 0 31 26 122 47 164 24 47 117 156 134 156 4 0 1
-19 -7 -42 -19 -54 -19 -156 -1 -226 l15 -54 -35 -32 c-30 -27 -36 -41 -41
-84 -5 -60 10 -92 61 -122 114 -70 247 63 177 177 -21 35 -49 53 -95 63 -25 5
-32 13 -47 60 -31 99 -16 214 34 267 l23 25 -24 19 c-26 21 -85 25 -115 7z"/>
<path d="M2533 2200 c0 -30 2 -43 4 -27 2 15 2 39 0 55 -2 15 -4 2 -4 -28z"/>
<path d="M2523 2055 c0 -33 2 -45 4 -27 2 18 2 45 0 60 -2 15 -4 0 -4 -33z"/>
<path d="M2513 1910 c0 -30 2 -43 4 -27 2 15 2 39 0 55 -2 15 -4 2 -4 -28z"/>
<path d="M2503 1765 c0 -33 2 -45 4 -27 2 18 2 45 0 60 -2 15 -4 0 -4 -33z"/>
<path d="M2493 1615 c0 -33 2 -45 4 -27 2 18 2 45 0 60 -2 15 -4 0 -4 -33z"/>
<path d="M2483 1475 c0 -33 2 -45 4 -27 2 18 2 45 0 60 -2 15 -4 0 -4 -33z"/>
<path d="M2473 1325 c0 -33 2 -45 4 -27 2 18 2 45 0 60 -2 15 -4 0 -4 -33z"/>
<path d="M2463 1185 c0 -33 2 -45 4 -27 2 18 2 45 0 60 -2 15 -4 0 -4 -33z"/>
<path d="M2453 1035 c0 -33 2 -45 4 -27 2 18 2 45 0 60 -2 15 -4 0 -4 -33z"/>
<path d="M2443 890 c0 -36 2 -50 4 -32 2 17 2 47 0 65 -2 17 -4 3 -4 -33z"/>
<path d="M2433 745 c0 -33 2 -45 4 -27 2 18 2 45 0 60 -2 15 -4 0 -4 -33z"/>
<path d="M2423 605 c0 -33 2 -45 4 -27 2 18 2 45 0 60 -2 15 -4 0 -4 -33z"/>
</g>
</svg>
